<?xml version="1.0" standalone="no"?><!DOCTYPE svg PUBLIC "-//W3C//DTD SVG 1.1//EN" "http://www.w3.org/Graphics/SVG/1.1/DTD/svg11.dtd"><svg t="1772089882509" class="icon" viewBox="0 0 1024 1024" version="1.1" xmlns="http://www.w3.org/2000/svg" p-id="9301" xmlns:xlink="http://www.w3.org/1999/xlink" width="200" height="200"><path d="M245.76 845.824h491.52c22.528 0 40.96 18.432 40.96 40.96s-18.432 40.96-40.96 40.96H245.76c-22.528 0-40.96-18.432-40.96-40.96s18.432-40.96 40.96-40.96z" fill="#ff9f0a" opacity=".3" p-id="9302" data-spm-anchor-id="a313x.search_index.0.i1.47893a81B52w7D" class=""></path><path d="M204.8 555.008c-71.68-18.432-122.88-81.92-122.88-157.696 0-90.112 73.728-163.84 163.84-163.84h14.336c32.768-96.256 124.928-163.84 231.424-163.84s198.656 69.632 231.424 163.84h14.336c90.112 0 163.84 73.728 163.84 163.84 0 75.776-51.2 141.312-122.88 157.696v169.984c0 22.528-18.432 40.96-40.96 40.96H245.76c-22.528 0-40.96-18.432-40.96-40.96v-169.984z" fill="#ff9f0a" p-id="9303" data-spm-anchor-id="a313x.search_index.0.i0.47893a81B52w7D" class=""></path></svg>