<svg xmlns="http://www.w3.org/2000/svg" viewBox="0 0 200 200" fill="none">
  <rect width="200" height="200" rx="48" fill="#FFF4E6"/>
  <circle cx="100" cy="82" r="34" fill="#F3C7A5"/>
  <path d="M56 176c10-31 29-48 44-48s34 17 44 48" fill="#FF8A3D"/>
  <path d="M58 72c0-18 14-32 31-32 8 0 15 3 20 9 5-7 13-11 22-11 18 0 32 14 32 32 0 8-3 15-8 21H66c-5-6-8-13-8-19Z" fill="#FFF"/>
  <path d="M76 66c5-9 15-15 24-15 10 0 19 6 24 15" stroke="#FFD27A" stroke-width="6" stroke-linecap="round"/>
  <circle cx="87" cy="83" r="4" fill="#4A3428"/>
  <circle cx="113" cy="83" r="4" fill="#4A3428"/>
  <path d="M89 98c6 5 16 5 22 0" stroke="#B86B52" stroke-width="4" stroke-linecap="round"/>
</svg>
