<svg xmlns="http://www.w3.org/2000/svg" viewBox="0 0 200 200" fill="none">
  <rect width="200" height="200" rx="48" fill="#FFF5F7"/>
  <circle cx="100" cy="82" r="34" fill="#F0C9A8"/>
  <path d="M56 176c10-31 28-48 44-48 16 0 34 17 44 48" fill="#EB5757"/>
  <path d="M59 72c0-18 14-32 31-32 8 0 15 3 20 9 5-7 13-11 22-11 18 0 32 14 32 32 0 8-3 15-8 21H67c-5-6-8-13-8-19Z" fill="#FFF"/>
  <path d="M76 72c5-6 14-10 24-10s19 4 24 10" stroke="#F299C1" stroke-width="6" stroke-linecap="round"/>
  <circle cx="87" cy="83" r="4" fill="#4A3428"/>
  <circle cx="113" cy="83" r="4" fill="#4A3428"/>
  <path d="M84 99c10 8 22 8 32 0" stroke="#B86B52" stroke-width="4" stroke-linecap="round"/>
</svg>
