<svg xmlns="http://www.w3.org/2000/svg" viewBox="0 0 200 200" fill="none">
  <rect width="200" height="200" rx="48" fill="#FFF1EC"/>
  <circle cx="100" cy="82" r="34" fill="#A96F4D"/>
  <path d="M56 176c10-31 29-48 44-48s34 17 44 48" fill="#F2994A"/>
  <path d="M58 72c0-18 14-32 31-32 8 0 15 3 20 9 5-7 13-11 22-11 18 0 32 14 32 32 0 8-3 15-8 21H66c-5-6-8-13-8-19Z" fill="#FFF"/>
  <path d="M78 84c4-11 12-17 22-17s18 6 22 17" stroke="#6E3E25" stroke-width="7" stroke-linecap="round"/>
  <circle cx="87" cy="84" r="4" fill="#2B1B14"/>
  <circle cx="113" cy="84" r="4" fill="#2B1B14"/>
  <path d="M89 100c6 4 16 4 22 0" stroke="#F7C29C" stroke-width="4" stroke-linecap="round"/>
</svg>
