<svg xmlns="http://www.w3.org/2000/svg" viewBox="0 0 200 200" fill="none">
  <rect width="200" height="200" rx="48" fill="#F0FFF6"/>
  <circle cx="100" cy="82" r="34" fill="#E7C39B"/>
  <path d="M56 176c10-31 29-48 44-48s34 17 44 48" fill="#00A896"/>
  <path d="M58 72c0-18 14-32 31-32 8 0 15 3 20 9 5-7 13-11 22-11 18 0 32 14 32 32 0 8-3 15-8 21H66c-5-6-8-13-8-19Z" fill="#FFF"/>
  <path d="M73 75c7 0 12 5 14 11 3-6 8-11 13-11s10 5 13 11c2-6 7-11 14-11" stroke="#5B4338" stroke-width="5" stroke-linecap="round"/>
  <circle cx="87" cy="83" r="4" fill="#432E25"/>
  <circle cx="113" cy="83" r="4" fill="#432E25"/>
  <path d="M86 99c8 7 20 7 28 0" stroke="#A16B56" stroke-width="4" stroke-linecap="round"/>
</svg>
