<svg xmlns="http://www.w3.org/2000/svg" viewBox="0 0 200 200" fill="none">
  <rect width="200" height="200" rx="48" fill="#FFF4F2"/>
  <circle cx="100" cy="82" r="34" fill="#D8A47D"/>
  <path d="M56 176c10-31 29-48 44-48s34 17 44 48" fill="#C56CF0"/>
  <path d="M58 72c0-18 14-32 31-32 8 0 15 3 20 9 5-7 13-11 22-11 18 0 32 14 32 32 0 8-3 15-8 21H66c-5-6-8-13-8-19Z" fill="#FFF"/>
  <path d="M86 66l14 8 14-8" stroke="#E6B6FF" stroke-width="5" stroke-linecap="round" stroke-linejoin="round"/>
  <circle cx="87" cy="83" r="4" fill="#39251D"/>
  <circle cx="113" cy="83" r="4" fill="#39251D"/>
  <path d="M90 99c5 6 15 6 20 0" stroke="#8D5C4D" stroke-width="4" stroke-linecap="round"/>
</svg>
