<svg xmlns="http://www.w3.org/2000/svg" viewBox="0 0 200 200" fill="none">
  <rect width="200" height="200" rx="48" fill="#F4FFF6"/>
  <circle cx="100" cy="82" r="34" fill="#DFAF88"/>
  <path d="M56 176c11-31 28-48 44-48s33 17 44 48" fill="#27AE60"/>
  <path d="M58 72c0-18 14-32 31-32 8 0 15 3 20 9 5-7 13-11 22-11 18 0 32 14 32 32 0 8-3 15-8 21H66c-5-6-8-13-8-19Z" fill="#FFF"/>
  <path d="M80 81c5-9 12-14 20-14s15 5 20 14" stroke="#5D4037" stroke-width="7" stroke-linecap="round"/>
  <circle cx="87" cy="84" r="4" fill="#3E2C23"/>
  <circle cx="113" cy="84" r="4" fill="#3E2C23"/>
  <path d="M89 99c6 4 16 4 22 0" stroke="#8C5A47" stroke-width="4" stroke-linecap="round"/>
</svg>
